<svg id="f2dc99c9-3f09-4f6a-892b-49321c747e9f" data-name="Icon" xmlns="http://www.w3.org/2000/svg" viewBox="0 0 36 36">
  <defs>
    <style>
      .ab89ba59-1b88-4d27-ab9d-80b0c5f89f97 {
        fill: #e00;
      }
    </style>
  </defs>
  <g>
    <path class="ab89ba59-1b88-4d27-ab9d-80b0c5f89f97" d="M10,11.37a.62.62,0,0,0-.61.63.61.61,0,0,0,.61.62.62.62,0,0,0,.63-.62A.63.63,0,0,0,10,11.37Z"/>
    <path class="ab89ba59-1b88-4d27-ab9d-80b0c5f89f97" d="M8,11.37a.62.62,0,0,0-.61.63.61.61,0,0,0,.61.62A.62.62,0,0,0,8.62,12,.63.63,0,0,0,8,11.37Z"/>
    <g>
      <path class="ab89ba59-1b88-4d27-ab9d-80b0c5f89f97" d="M31,8.38H5A.62.62,0,0,0,4.38,9V27a.62.62,0,0,0,.62.62H31a.62.62,0,0,0,.62-.62V9A.62.62,0,0,0,31,8.38Zm-.62,18H5.62V9.62H30.38Z"/>
      <path class="ab89ba59-1b88-4d27-ab9d-80b0c5f89f97" d="M18,15.38H8a.62.62,0,0,0-.62.62v8a.62.62,0,0,0,.62.62H18a.62.62,0,0,0,.62-.62V16A.62.62,0,0,0,18,15.38Zm-.62,8H8.62V16.62h8.76Z"/>
      <path class="ab89ba59-1b88-4d27-ab9d-80b0c5f89f97" d="M13,12.62H28a.62.62,0,1,0,0-1.24H13a.62.62,0,0,0,0,1.24Z"/>
      <path class="ab89ba59-1b88-4d27-ab9d-80b0c5f89f97" d="M28,16.38H21a.62.62,0,0,0,0,1.24h7a.62.62,0,0,0,0-1.24Z"/>
      <path class="ab89ba59-1b88-4d27-ab9d-80b0c5f89f97" d="M28,19.38H21a.62.62,0,0,0,0,1.24h7a.62.62,0,0,0,0-1.24Z"/>
      <path class="ab89ba59-1b88-4d27-ab9d-80b0c5f89f97" d="M24,22.38H21a.62.62,0,0,0,0,1.24h3a.62.62,0,0,0,0-1.24Z"/>
    </g>
  </g>
</svg>
