<svg id="f05479e7-a019-44f1-8968-b41df6276f9e" data-name="Icon" xmlns="http://www.w3.org/2000/svg" viewBox="0 0 36 36">
  <defs>
    <style>
      .b7a71d9a-e907-4422-b89e-c93efee7d2cc {
        fill: #e00;
      }
    </style>
  </defs>
  <g>
    <path class="b7a71d9a-e907-4422-b89e-c93efee7d2cc" d="M12.87,23.29a3.86,3.86,0,1,0-4.74,0A7.11,7.11,0,0,0,3.38,30a.61.61,0,0,0,.62.62H17a.63.63,0,0,0,.63-.62A7.13,7.13,0,0,0,12.87,23.29Zm-5-3a2.62,2.62,0,0,1,5.24,0A2.62,2.62,0,0,1,7.88,20.25ZM4.66,29.38c.84-6.94,10.84-6.93,11.68,0Z"/>
    <path class="b7a71d9a-e907-4422-b89e-c93efee7d2cc" d="M13.37,15.38a6,6,0,0,1,9.48.18.61.61,0,0,0,.66-.07c1.07-1-2.27-3-3.13-3.21a3.86,3.86,0,1,0-4.76,0c-.86.25-4.2,2.18-3.13,3.21A.62.62,0,0,0,13.37,15.38Zm2-6.13a2.62,2.62,0,0,1,5.24,0A2.62,2.62,0,0,1,15.38,9.25Z"/>
    <path class="b7a71d9a-e907-4422-b89e-c93efee7d2cc" d="M16,19.38a.62.62,0,0,0,0,1.24h4a.62.62,0,0,0,0-1.24Z"/>
    <path class="b7a71d9a-e907-4422-b89e-c93efee7d2cc" d="M27.87,23.29a3.86,3.86,0,1,0-4.74,0A7.11,7.11,0,0,0,18.38,30a.61.61,0,0,0,.62.62H32a.63.63,0,0,0,.63-.62A7.13,7.13,0,0,0,27.87,23.29Zm-5-3a2.62,2.62,0,0,1,5.24,0A2.62,2.62,0,0,1,22.88,20.25Zm-3.22,9.13c.84-6.94,10.84-6.93,11.68,0Z"/>
  </g>
</svg>
