<svg id="ebd7c5ab-2ab1-4013-9461-d431819ace7a" data-name="Icon" xmlns="http://www.w3.org/2000/svg" viewBox="0 0 36 36">
  <defs>
    <style>
      .a54d53a2-da0e-4141-a650-cbe1d8c4cd58 {
        fill: #e00;
      }
    </style>
  </defs>
  <g>
    <path class="a54d53a2-da0e-4141-a650-cbe1d8c4cd58" d="M13.87,24.29a3.88,3.88,0,1,0-4.74,0A7.12,7.12,0,0,0,4.38,31a.62.62,0,0,0,.62.62H18a.62.62,0,0,0,.62-.62A7.12,7.12,0,0,0,13.87,24.29Zm-5-3a2.62,2.62,0,1,1,2.62,2.63A2.62,2.62,0,0,1,8.88,21.25ZM5.66,30.38a5.87,5.87,0,0,1,11.68,0Z"/>
    <path class="a54d53a2-da0e-4141-a650-cbe1d8c4cd58" d="M31,4.38H12a.62.62,0,0,0-.62.62V15a.62.62,0,0,0,1.24,0V5.62H30.38V23.38H18a.62.62,0,0,0,0,1.24H31a.62.62,0,0,0,.62-.62V5A.62.62,0,0,0,31,4.38Z"/>
  </g>
</svg>
